<svg xmlns="http://www.w3.org/2000/svg" width="9" height="9" viewBox="0 0 9 9">
  <defs>
    <style>
      .cls-1 {
        fill: #6e7e8a;
        fill-rule: evenodd;
      }
    </style>
  </defs>
  <path id="date-icon" class="cls-1" d="M90.813,148.219v0.562a0.281,0.281,0,0,1-.281.282H89.969a0.281,0.281,0,0,1-.281-0.282v-0.562a0.281,0.281,0,0,1,.281-0.281h0.563A0.281,0.281,0,0,1,90.813,148.219Zm-0.281,1.969H89.969a0.281,0.281,0,0,0-.281.281v0.562a0.281,0.281,0,0,0,.281.282h0.563a0.281,0.281,0,0,0,.281-0.282v-0.562A0.281,0.281,0,0,0,90.531,150.188Zm2.25-2.25H92.219a0.281,0.281,0,0,0-.281.281v0.562a0.281,0.281,0,0,0,.281.282h0.563a0.281,0.281,0,0,0,.281-0.282v-0.562A0.281,0.281,0,0,0,92.781,147.938Zm0,2.25H92.219a0.281,0.281,0,0,0-.281.281v0.562a0.281,0.281,0,0,0,.281.282h0.563a0.281,0.281,0,0,0,.281-0.282v-0.562A0.281,0.281,0,0,0,92.781,150.188Zm2.25-2.25H94.469a0.281,0.281,0,0,0-.281.281v0.562a0.281,0.281,0,0,0,.281.282h0.563a0.281,0.281,0,0,0,.281-0.282v-0.562A0.281,0.281,0,0,0,95.031,147.938Zm0,2.25H94.469a0.281,0.281,0,0,0-.281.281v0.562a0.281,0.281,0,0,0,.281.282h0.563a0.281,0.281,0,0,0,.281-0.282v-0.562A0.281,0.281,0,0,0,95.031,150.188Zm-5.062-4.5h0.563a0.281,0.281,0,0,0,.281-0.282v-1.125A0.281,0.281,0,0,0,90.531,144H89.969a0.281,0.281,0,0,0-.281.281v1.125A0.281,0.281,0,0,0,89.969,145.688ZM97,146.25v5.625A1.125,1.125,0,0,1,95.875,153h-6.75A1.125,1.125,0,0,1,88,151.875V146.25a1.125,1.125,0,0,1,1.125-1.125h0.281v0.281a0.564,0.564,0,0,0,.563.563h0.563a0.564,0.564,0,0,0,.563-0.563v-0.281h2.813v0.281a0.564,0.564,0,0,0,.563.563h0.563a0.564,0.564,0,0,0,.563-0.563v-0.281h0.281A1.125,1.125,0,0,1,97,146.25Zm-0.562,1.125a0.563,0.563,0,0,0-.562-0.562h-6.75a0.563,0.563,0,0,0-.562.562v4.5a0.564,0.564,0,0,0,.563.563h6.75a0.564,0.564,0,0,0,.563-0.563v-4.5Zm-1.969-1.687h0.563a0.281,0.281,0,0,0,.281-0.282v-1.125A0.281,0.281,0,0,0,95.031,144H94.469a0.281,0.281,0,0,0-.281.281v1.125A0.281,0.281,0,0,0,94.469,145.688Z" transform="translate(-88 -144)"/>
</svg>
