<svg xmlns="http://www.w3.org/2000/svg" width="19" height="19" viewBox="0 0 19 19">
  <defs>
    <style>
      .cls-1 {
        fill: #6e7e8a;
        fill-rule: evenodd;
      }
    </style>
  </defs>
  <path id="search-icon" class="cls-1" d="M274.424,36.561l-3.375-3.367-0.611-.61c-0.025-.025-0.053-0.041-0.079-0.065a7.71,7.71,0,1,0-2.868,2.838c0.026,0.03.046,0.063,0.075,0.091l0.611,0.609,3.375,3.367a1.939,1.939,0,0,0,2.737,0l0.135-.135A1.927,1.927,0,0,0,274.424,36.561ZM263.7,34.573a5.9,5.9,0,1,1,5.908-5.9A5.9,5.9,0,0,1,263.7,34.573Z" transform="translate(-256 -21)"/>
</svg>
